<svg xmlns="http://www.w3.org/2000/svg" viewBox="0 0 104 64" width="104" height="64">
  <path fill="#2E77BC" d="M104 63.992H0V0h104v63.992z"/>
  <path fill="#FFFFFF" d="M52.873 32.877l2.93-7.013h10.645v-5.436H50.674L43.906 40.31h-6.805l-6.9-19.882H14.692v5.436h8.881l5.806 15.96h9.799l2.93-7.013h6.9l2.93 7.013h15.605V32.88h-13.67v-.003zm-8.881-4.67l2.93-7.013-2.93-7.013-2.93 7.013 2.93 7.013zm39.588 12.016h15.605l-7.802-9.783 7.802-10.099H83.58l-4.871 6.429-4.871-6.429H58.233l7.802 10.099-7.802 9.783h15.605l4.871-6.429 4.871 6.429z"/>
</svg>