<?xml version="1.0" standalone="no"?>
<!DOCTYPE svg PUBLIC "-//W3C//DTD SVG 20010904//EN"
 "http://www.w3.org/TR/2001/REC-SVG-20010904/DTD/svg10.dtd">
<svg version="1.0" xmlns="http://www.w3.org/2000/svg"
 width="1875.000000pt" height="1298.000000pt" viewBox="0 0 1875.000000 1298.000000"
 preserveAspectRatio="xMidYMid meet">

<g transform="translate(0.000000,1298.000000) scale(0.100000,-0.100000)"
fill="#FFFFFF" stroke="none">
<path d="M8914 12969 c-1921 -61 -3734 -499 -5259 -1269 -1273 -643 -2259
-1471 -2891 -2430 -407 -618 -638 -1222 -735 -1920 -19 -134 -22 -217 -26
-615 -8 -693 25 -1024 151 -1518 288 -1133 966 -2165 1971 -3002 1479 -1232
3587 -1993 6040 -2180 386 -29 585 -35 1215 -35 627 0 819 6 1220 36 3484 262
6232 1686 7476 3874 349 615 557 1252 650 1990 26 206 32 1127 9 1353 -167
1628 -1304 3128 -3190 4209 -1825 1046 -4199 1586 -6631 1507z m1121 -369
c2076 -99 3982 -632 5508 -1542 176 -105 472 -300 616 -406 l84 -61 -49 -22
c-127 -55 -396 -157 -554 -209 -466 -155 -891 -243 -1355 -281 -185 -15 -677
-6 -855 15 -586 71 -1073 213 -1661 484 -495 228 -992 375 -1514 447 -184 26
-616 31 -835 10 -508 -48 -952 -177 -1333 -386 -117 -64 -347 -217 -456 -303
-75 -58 -89 -66 -128 -66 -180 0 -550 -64 -863 -150 -369 -100 -607 -159 -711
-174 -119 -18 -375 -21 -537 -6 -423 38 -1837 427 -2610 718 l-104 39 49 35
c96 70 292 197 456 297 1500 908 3428 1455 5502 1560 235 12 1107 13 1350 1z
m165 -1941 c463 -59 958 -206 1425 -422 185 -85 308 -137 452 -191 1403 -521
2800 -454 4327 210 l169 73 116 -101 c64 -56 199 -186 301 -288 288 -289 475
-515 685 -830 248 -372 425 -734 544 -1115 44 -143 97 -353 107 -425 l6 -46
-68 -13 c-38 -8 -248 -58 -467 -113 -1107 -275 -2215 -643 -3194 -1060 l-211
-90 -499 434 c-1827 1589 -2761 2377 -3128 2637 -423 301 -659 390 -1005 378
-238 -8 -394 -49 -635 -167 -220 -108 -415 -241 -829 -569 -700 -555 -854
-633 -1261 -635 -84 0 -183 5 -225 13 -171 30 -331 100 -399 174 l-24 26 19
36 c25 46 776 855 986 1060 495 486 838 718 1296 876 282 97 530 142 957 173
105 8 407 -6 555 -25z m-7723 -260 c813 -324 1988 -673 2623 -778 140 -23 468
-51 603 -51 221 0 459 44 887 165 139 40 415 109 480 120 l25 5 -23 -17 c-42
-30 -957 -1025 -990 -1077 -46 -72 -65 -143 -60 -230 15 -282 349 -495 873
-557 139 -16 425 -6 535 19 171 40 343 121 551 261 119 80 193 135 599 451
282 220 575 406 773 492 179 77 379 117 521 103 238 -23 493 -145 820 -393
312 -236 1283 -1058 2601 -2201 774 -672 950 -827 989 -873 125 -144 162 -370
87 -522 -113 -229 -427 -371 -692 -312 -125 28 -180 61 -339 207 -500 457
-1096 988 -1237 1102 -117 94 -182 108 -239 52 -29 -29 -33 -98 -8 -148 9 -18
303 -320 653 -672 379 -380 651 -661 670 -692 96 -154 97 -334 1 -482 -42 -66
-154 -170 -230 -215 -184 -108 -348 -139 -512 -97 -136 35 -154 48 -480 368
-730 716 -841 803 -947 749 -53 -28 -64 -89 -28 -154 12 -22 229 -273 482
-556 322 -361 469 -533 489 -573 21 -40 30 -76 34 -125 4 -62 2 -74 -28 -135
-64 -129 -217 -245 -373 -282 -130 -31 -290 -23 -387 20 -32 15 -113 87 -290
262 -322 318 -586 558 -679 619 -64 40 -131 40 -172 -1 -36 -37 -38 -81 -6
-139 12 -23 196 -233 410 -468 l387 -427 -19 -31 c-61 -96 -260 -166 -474
-166 -178 0 -371 50 -586 151 -86 40 -102 52 -96 66 61 157 85 280 85 438 0
298 -98 540 -303 752 -196 202 -468 323 -728 323 l-79 0 6 53 c8 67 -11 248
-36 357 -11 47 -43 130 -69 185 -89 180 -208 298 -396 390 -248 122 -487 153
-733 95 -51 -12 -94 -20 -96 -18 -1 1 -22 34 -47 73 -120 188 -318 323 -577
393 -89 23 -114 26 -287 26 -179 0 -195 -2 -280 -28 -102 -31 -198 -73 -268
-118 l-48 -30 -61 61 c-115 117 -249 195 -414 243 -68 20 -101 23 -239 22
-144 0 -169 -3 -248 -27 -132 -41 -250 -106 -356 -195 l-34 -29 -62 43 c-569
398 -1771 837 -3235 1183 -235 56 -503 127 -712 188 -20 6 -22 -2 29 193 235
916 839 1802 1738 2550 59 49 112 90 116 90 5 0 66 -23 136 -51z m-1872 -3233
c105 -25 309 -72 455 -106 978 -226 1767 -468 2400 -737 366 -156 810 -403
795 -442 -4 -9 -18 -59 -32 -111 -35 -134 -35 -314 0 -451 71 -275 269 -506
525 -614 136 -56 201 -69 371 -70 l153 -1 24 -82 c86 -298 305 -541 604 -674
136 -60 226 -80 365 -82 66 0 143 3 172 7 l52 8 35 -68 c110 -220 337 -397
622 -486 156 -49 352 -54 490 -12 27 8 50 15 51 15 1 0 18 -32 38 -71 101
-201 270 -371 470 -473 394 -200 887 -136 1210 156 l51 46 99 -49 c304 -149
648 -233 879 -214 197 16 385 71 511 150 73 45 177 147 198 192 8 18 16 23 31
19 149 -42 357 -44 501 -7 322 85 661 399 701 649 6 39 8 41 33 34 14 -4 94
-7 176 -6 175 1 284 25 429 93 355 166 559 426 597 760 l11 96 182 0 c159 0
191 3 261 23 406 118 672 406 703 764 15 173 -21 366 -93 495 l-23 42 172 70
c968 395 2275 799 3528 1090 l36 8 7 -143 c12 -238 -12 -567 -60 -830 -228
-1234 -1083 -2393 -2434 -3299 -1226 -821 -2822 -1399 -4546 -1644 -675 -97
-1241 -135 -1980 -135 -607 0 -1002 21 -1535 80 -2179 241 -4132 980 -5515
2089 -397 318 -779 705 -1061 1075 -438 573 -729 1211 -843 1845 -44 250 -55
380 -56 675 0 313 6 384 33 376 9 -3 103 -25 207 -50z m4639 -1071 c225 -59
387 -243 423 -481 26 -177 18 -173 95 -58 139 208 330 342 545 384 94 19 269
8 370 -22 235 -71 375 -244 412 -512 11 -80 30 -106 77 -106 25 0 47 12 96 55
187 164 407 197 663 100 199 -75 330 -220 370 -413 32 -148 14 -355 -46 -535
-36 -108 -37 -140 -4 -173 30 -30 51 -27 185 18 129 43 230 58 324 48 518 -59
812 -603 574 -1063 -32 -63 -63 -103 -133 -173 -76 -76 -104 -97 -185 -136
-113 -55 -208 -78 -325 -78 -116 0 -211 23 -324 77 -80 38 -108 58 -186 137
-137 136 -194 259 -215 456 -10 102 -29 142 -70 148 -40 6 -66 -7 -139 -68
-111 -93 -223 -140 -332 -140 -135 0 -360 97 -477 205 -58 54 -80 84 -114 153
-43 85 -43 87 -45 201 -1 64 -2 121 -2 128 -1 7 -11 22 -23 33 -29 27 -64 21
-138 -24 -229 -140 -393 -151 -610 -41 -192 97 -315 239 -381 440 -21 64 -23
88 -24 267 0 194 0 197 -24 222 -14 14 -28 26 -33 26 -5 0 -37 -23 -71 -50
-144 -117 -314 -163 -479 -129 -29 6 -91 29 -137 51 -153 73 -271 224 -306
393 -18 88 -18 132 0 220 44 210 210 385 415 439 73 19 202 20 274 1z"/>
</g>
</svg>
