<svg xmlns="http://www.w3.org/2000/svg" viewBox="0 0 1000 324" width="1000" height="324">
  <path fill="#1434CB" d="M651.185 0.738L450.846 323.262H363.289L264.992 72.756C259.338 54.108 254.199 45.385 238.359 36.657C211.542 22.953 171.118 10.185 135.111 2.391L137.289 0.738H284.466C305.586 0.738 324.466 14.444 329.605 38.824L382.684 230.379L509.699 0.741L651.185 0.738ZM999.999 0.738L876.847 323.262H741.659L864.814 0.738H999.999ZM750.185 0.738L626.523 323.262H495.927L619.586 0.738H750.185ZM402.576 137.271C402.576 89.908 461.844 65.291 535.055 65.291C569.443 65.291 612.54 72.756 648.034 85.945L631.68 166.503C605.891 158.524 563.307 152.705 526.271 152.705C497.327 152.705 485.544 160.17 485.544 171.293C485.544 193.27 533.907 198.575 584.769 221.579C643.523 247.736 655.306 277.534 654.793 313.095C654.276 371.921 595.008 399.108 514.324 399.108C467.498 399.108 416.636 389.525 382.248 376.336L399.115 293.124C433.503 304.247 474.787 311.198 514.324 311.198C549.225 311.198 568.105 303.733 568.105 287.388C568.105 266.441 525.008 258.456 474.787 236.479C415.52 209.809 402.576 182.625 402.576 137.271Z"/>
</svg>